<?xml version="1.0" encoding="utf-8"?>
<!-- Generator: Adobe Illustrator 16.0.4, SVG Export Plug-In . SVG Version: 6.00 Build 0)  -->
<!DOCTYPE svg PUBLIC "-//W3C//DTD SVG 1.0//EN" "http://www.w3.org/TR/2001/REC-SVG-20010904/DTD/svg10.dtd">
<svg version="1.0" id="Layer_1" xmlns="http://www.w3.org/2000/svg" xmlns:xlink="http://www.w3.org/1999/xlink" x="0px" y="0px"
	 width="34.844px" height="48px" viewBox="1304.5 98.671 34.844 48" enable-background="new 1304.5 98.671 34.844 48"
	 xml:space="preserve">
<path fill="#FFFFFF" d="M1333.993,109.071c-0.371-2.578-1.556-4.959-3.431-6.835c-2.295-2.297-5.348-3.563-8.6-3.564
	c-6.105,0-11.173,4.527-12.027,10.4h-5.436v37.6h34.844v-37.6H1333.993z M1321.967,101.427c2.511,0.001,4.871,0.98,6.646,2.757
	c1.353,1.354,2.239,3.047,2.586,4.887h-18.47C1313.556,104.725,1317.382,101.427,1321.967,101.427z M1322.091,121.022
	c-2.512-0.002-4.87-0.98-6.646-2.756c-1.775-1.778-2.752-4.138-2.75-6.648l18.801,0.008
	C1331.493,116.807,1327.276,121.022,1322.091,121.022z"/>
</svg>
