<?xml version="1.0" encoding="utf-8"?>
<!-- Generator: Adobe Illustrator 16.0.4, SVG Export Plug-In . SVG Version: 6.00 Build 0)  -->
<!DOCTYPE svg PUBLIC "-//W3C//DTD SVG 1.0//EN" "http://www.w3.org/TR/2001/REC-SVG-20010904/DTD/svg10.dtd">
<svg version="1.0" id="Layer_1" xmlns="http://www.w3.org/2000/svg" xmlns:xlink="http://www.w3.org/1999/xlink" x="0px" y="0px"
	 width="48px" height="41.995px" viewBox="359.97 30 48 41.995" enable-background="new 359.97 30 48 41.995" xml:space="preserve">
<path fill="#FFFFFF" d="M386.97,30v5.999h-22.497c-1.116,0-2.319,0.444-3.188,1.314c-0.87,0.87-1.314,2.07-1.314,3.188v20.998
	c0,1.116,0.444,2.319,1.314,3.188c0.87,0.87,2.069,1.314,3.188,1.314h4.5v-5.999h-3V42.004h20.997v6l8.999-8.999l-8.999-8.999V30z
	 M398.968,35.999v6h3v17.998h-20.997v-5.999l-8.999,8.999l8.999,8.999v-5.999h22.497c1.116,0,2.319-0.444,3.188-1.314
	c0.87-0.87,1.314-2.07,1.314-3.188V40.496c0-1.116-0.444-2.318-1.314-3.188c-0.87-0.87-2.07-1.314-3.188-1.314h-4.5V35.999z"/>
</svg>
