<?xml version="1.0" encoding="utf-8"?>
<!-- Generator: Adobe Illustrator 16.0.4, SVG Export Plug-In . SVG Version: 6.00 Build 0)  -->
<!DOCTYPE svg PUBLIC "-//W3C//DTD SVG 1.1//EN" "http://www.w3.org/Graphics/SVG/1.1/DTD/svg11.dtd">
<svg version="1.1" id="Layer_1" xmlns="http://www.w3.org/2000/svg" xmlns:xlink="http://www.w3.org/1999/xlink" x="0px" y="0px"
	 width="48px" height="38.4px" viewBox="0 0 48 38.4" enable-background="new 0 0 48 38.4" xml:space="preserve">
<g>
	<polygon fill-rule="evenodd" clip-rule="evenodd" fill="#FFFFFF" points="48,38.4 48,0 0,0 0,38.4 48,38.4 	"/>
	<polygon fill-rule="evenodd" clip-rule="evenodd" fill="#E63027" points="48,9.005 48,5.855 33.595,5.855 33.595,9.005 48,9.005 	
		"/>
	<polygon fill-rule="evenodd" clip-rule="evenodd" fill="#E63027" points="48,14.86 48,11.712 33.595,11.712 33.595,14.86 48,14.86 
			"/>
	<polygon fill-rule="evenodd" clip-rule="evenodd" fill="#E63027" points="48,20.693 48,17.567 33.595,17.567 33.595,20.693 
		48,20.693 	"/>
	<polygon fill-rule="evenodd" clip-rule="evenodd" fill="#E63027" points="48,3.15 48,0 33.595,0 33.595,3.15 48,3.15 	"/>
	<polygon fill-rule="evenodd" clip-rule="evenodd" fill="#124395" points="33.548,20.693 33.548,0 0.07,0 0.07,20.693 
		33.548,20.693 	"/>
	<polygon fill-rule="evenodd" clip-rule="evenodd" fill="#E63027" points="48,26.688 48,23.539 0,23.539 0,26.688 48,26.688 	"/>
	<polygon fill-rule="evenodd" clip-rule="evenodd" fill="#E63027" points="48,32.544 48,29.395 0,29.395 0,32.544 48,32.544 	"/>
	<polygon fill-rule="evenodd" clip-rule="evenodd" fill="#E63027" points="48,38.4 48,35.25 0,35.25 0,38.4 48,38.4 	"/>
	<polygon fill-rule="evenodd" clip-rule="evenodd" fill="#FFFFFF" points="30.655,11.501 30.981,10.521 30.142,9.915 31.191,9.915 
		31.519,8.935 31.821,9.915 32.871,9.915 32.008,10.521 32.335,11.501 31.519,10.894 30.655,11.501 	"/>
	<polygon fill-rule="evenodd" clip-rule="evenodd" fill="#FFFFFF" points="30.655,15.7 30.981,14.72 30.142,14.114 31.191,14.114 
		31.519,13.135 31.821,14.114 32.871,14.114 32.008,14.72 32.335,15.7 31.519,15.094 30.655,15.7 	"/>
	<polygon fill-rule="evenodd" clip-rule="evenodd" fill="#FFFFFF" points="30.748,19.9 31.074,18.92 30.212,18.313 31.261,18.313 
		31.564,17.334 31.892,18.313 32.941,18.313 32.102,18.92 32.428,19.9 31.564,19.27 30.748,19.9 	"/>
	<polygon fill-rule="evenodd" clip-rule="evenodd" fill="#FFFFFF" points="1.633,3.242 1.937,2.263 1.097,1.656 2.123,1.656 
		2.449,0.677 2.776,1.656 3.803,1.656 2.963,2.263 3.289,3.242 2.449,2.636 1.633,3.242 	"/>
	<polygon fill-rule="evenodd" clip-rule="evenodd" fill="#FFFFFF" points="1.703,7.442 2.007,6.462 1.189,5.855 2.216,5.855 
		2.52,4.876 2.847,5.855 3.873,5.855 3.057,6.462 3.359,7.442 2.52,6.835 1.703,7.442 	"/>
	<polygon fill-rule="evenodd" clip-rule="evenodd" fill="#FFFFFF" points="1.772,11.665 2.076,10.661 1.26,10.078 2.286,10.078 
		2.612,9.075 2.916,10.078 3.966,10.078 3.126,10.661 3.43,11.665 2.612,11.057 1.772,11.665 	"/>
	<polygon fill-rule="evenodd" clip-rule="evenodd" fill="#FFFFFF" points="1.772,15.864 2.076,14.884 1.26,14.254 2.286,14.254 
		2.612,13.274 2.916,14.254 3.966,14.254 3.126,14.884 3.43,15.864 2.612,15.234 1.772,15.864 	"/>
	<polygon fill-rule="evenodd" clip-rule="evenodd" fill="#FFFFFF" points="1.843,20.04 2.17,19.084 1.33,18.476 2.356,18.476 
		2.683,17.473 2.986,18.476 4.036,18.476 3.196,19.084 3.522,20.04 2.683,19.433 1.843,20.04 	"/>
	<polygon fill-rule="evenodd" clip-rule="evenodd" fill="#FFFFFF" points="4.549,5.412 4.876,4.432 4.036,3.826 5.062,3.826 
		5.389,2.845 5.692,3.826 6.742,3.826 5.902,4.432 6.205,5.412 5.389,4.805 4.549,5.412 	"/>
	<polygon fill-rule="evenodd" clip-rule="evenodd" fill="#FFFFFF" points="4.619,9.541 4.946,8.561 4.105,7.955 5.133,7.955 
		5.459,6.975 5.763,7.955 6.812,7.955 5.973,8.561 6.299,9.541 5.459,8.935 4.619,9.541 	"/>
	<polygon fill-rule="evenodd" clip-rule="evenodd" fill="#FFFFFF" points="4.619,13.904 4.946,12.925 4.105,12.317 5.133,12.317 
		5.459,11.338 5.763,12.317 6.812,12.317 5.973,12.925 6.299,13.904 5.459,13.298 4.619,13.904 	"/>
	<polygon fill-rule="evenodd" clip-rule="evenodd" fill="#FFFFFF" points="4.549,18.266 4.876,17.287 4.036,16.68 5.062,16.68 
		5.389,15.677 5.692,16.68 6.742,16.68 5.902,17.287 6.205,18.266 5.389,17.66 4.549,18.266 	"/>
	<polygon fill-rule="evenodd" clip-rule="evenodd" fill="#FFFFFF" points="7.466,3.173 7.792,2.193 6.952,1.586 7.979,1.586 
		8.306,0.606 8.632,1.586 9.658,1.586 8.842,2.193 9.145,3.173 8.306,2.566 7.466,3.173 	"/>
	<polygon fill-rule="evenodd" clip-rule="evenodd" fill="#FFFFFF" points="7.535,7.372 7.862,6.392 7.022,5.785 8.072,5.785 
		8.398,4.805 8.702,5.785 9.729,5.785 8.889,6.392 9.215,7.372 8.398,6.765 7.535,7.372 	"/>
	<polygon fill-rule="evenodd" clip-rule="evenodd" fill="#FFFFFF" points="7.629,11.571 7.955,10.592 7.092,9.985 8.142,9.985 
		8.469,9.005 8.771,9.985 9.821,9.985 8.981,10.592 9.285,11.571 8.469,10.965 7.629,11.571 	"/>
	<polygon fill-rule="evenodd" clip-rule="evenodd" fill="#FFFFFF" points="7.629,15.794 7.955,14.791 7.092,14.183 8.142,14.183 
		8.469,13.204 8.771,14.183 9.821,14.183 8.981,14.791 9.285,15.794 8.469,15.187 7.629,15.794 	"/>
	<polygon fill-rule="evenodd" clip-rule="evenodd" fill="#FFFFFF" points="7.698,19.969 8.025,19.013 7.186,18.384 8.212,18.384 
		8.539,17.403 8.842,18.384 9.892,18.384 9.052,19.013 9.379,19.969 8.539,19.34 7.698,19.969 	"/>
	<polygon fill-rule="evenodd" clip-rule="evenodd" fill="#FFFFFF" points="10.405,5.343 10.731,4.362 9.892,3.756 10.918,3.756 
		11.245,2.776 11.548,3.756 12.598,3.756 11.758,4.362 12.085,5.366 11.245,4.736 10.405,5.343 	"/>
	<polygon fill-rule="evenodd" clip-rule="evenodd" fill="#FFFFFF" points="10.475,9.471 10.802,8.492 9.962,7.885 10.988,7.885 
		11.314,6.905 11.642,7.885 12.668,7.885 11.828,8.492 12.155,9.471 11.314,8.865 10.475,9.471 	"/>
	<polygon fill-rule="evenodd" clip-rule="evenodd" fill="#FFFFFF" points="10.475,13.834 10.802,12.854 9.962,12.248 10.988,12.248 
		11.314,11.245 11.642,12.248 12.668,12.248 11.828,12.854 12.155,13.834 11.314,13.227 10.475,13.834 	"/>
	<polygon fill-rule="evenodd" clip-rule="evenodd" fill="#FFFFFF" points="10.405,18.174 10.731,17.194 9.892,16.587 10.918,16.587 
		11.245,15.607 11.548,16.587 12.598,16.587 11.758,17.194 12.085,18.174 11.245,17.591 10.405,18.174 	"/>
	<polygon fill-rule="evenodd" clip-rule="evenodd" fill="#FFFFFF" points="13.321,3.103 13.647,2.123 12.808,1.516 13.857,1.516 
		14.161,0.513 14.487,1.516 15.514,1.516 14.674,2.123 15.001,3.103 14.161,2.496 13.321,3.103 	"/>
	<polygon fill-rule="evenodd" clip-rule="evenodd" fill="#FFFFFF" points="13.414,7.302 13.718,6.322 12.878,5.716 13.928,5.716 
		14.23,4.736 14.558,5.716 15.607,5.716 14.744,6.322 15.07,7.302 14.23,6.695 13.414,7.302 	"/>
	<polygon fill-rule="evenodd" clip-rule="evenodd" fill="#FFFFFF" points="13.484,11.501 13.787,10.521 12.972,9.915 13.998,9.915 
		14.301,8.935 14.627,9.915 15.677,9.915 14.838,10.521 15.164,11.501 14.301,10.894 13.484,11.501 	"/>
	<polygon fill-rule="evenodd" clip-rule="evenodd" fill="#FFFFFF" points="13.484,15.7 13.787,14.72 12.972,14.114 13.998,14.114 
		14.301,13.135 14.627,14.114 15.677,14.114 14.838,14.72 15.164,15.7 14.301,15.094 13.484,15.7 	"/>
	<polygon fill-rule="evenodd" clip-rule="evenodd" fill="#FFFFFF" points="13.555,19.9 13.857,18.92 13.041,18.313 14.067,18.313 
		14.395,17.334 14.721,18.313 15.747,18.313 14.907,18.92 15.234,19.9 14.395,19.27 13.555,19.9 	"/>
	<polygon fill-rule="evenodd" clip-rule="evenodd" fill="#FFFFFF" points="16.261,5.272 16.563,4.292 15.747,3.686 16.774,3.686 
		17.101,2.706 17.403,3.686 18.43,3.686 17.614,4.292 17.94,5.272 17.101,4.666 16.261,5.272 	"/>
	<polygon fill-rule="evenodd" clip-rule="evenodd" fill="#FFFFFF" points="16.33,9.401 16.657,8.422 15.817,7.815 16.844,7.815 
		17.171,6.835 17.497,7.815 18.523,7.815 17.684,8.422 18.011,9.401 17.171,8.795 16.33,9.401 	"/>
	<polygon fill-rule="evenodd" clip-rule="evenodd" fill="#FFFFFF" points="16.33,13.764 16.657,12.76 15.817,12.154 16.844,12.154 
		17.171,11.175 17.497,12.154 18.523,12.154 17.684,12.76 18.011,13.764 17.171,13.157 16.33,13.764 	"/>
	<polygon fill-rule="evenodd" clip-rule="evenodd" fill="#FFFFFF" points="16.261,18.103 16.563,17.124 15.747,16.517 
		16.774,16.517 17.101,15.537 17.403,16.517 18.43,16.517 17.614,17.124 17.94,18.103 17.101,17.497 16.261,18.103 	"/>
	<polygon fill-rule="evenodd" clip-rule="evenodd" fill="#FFFFFF" points="19.177,3.009 19.504,2.03 18.664,1.423 19.69,1.423 
		20.017,0.443 20.343,1.423 21.37,1.423 20.53,2.03 20.856,3.009 20.017,2.403 19.177,3.009 	"/>
	<polygon fill-rule="evenodd" clip-rule="evenodd" fill="#FFFFFF" points="19.27,7.232 19.573,6.252 18.733,5.645 19.76,5.645 
		20.087,4.642 20.413,5.645 21.439,5.645 20.623,6.252 20.927,7.232 20.087,6.625 19.27,7.232 	"/>
	<polygon fill-rule="evenodd" clip-rule="evenodd" fill="#FFFFFF" points="19.316,11.43 19.644,10.451 18.827,9.844 19.854,9.844 
		20.18,8.865 20.483,9.844 21.533,9.844 20.693,10.451 20.996,11.43 20.18,10.825 19.316,11.43 	"/>
	<polygon fill-rule="evenodd" clip-rule="evenodd" fill="#FFFFFF" points="19.316,15.631 19.644,14.65 18.827,14.044 19.854,14.044 
		20.18,13.064 20.483,14.044 21.533,14.044 20.693,14.65 20.996,15.631 20.18,15.023 19.316,15.631 	"/>
	<polygon fill-rule="evenodd" clip-rule="evenodd" fill="#FFFFFF" points="19.41,19.806 19.736,18.849 18.896,18.244 19.923,18.244 
		20.25,17.263 20.554,18.244 21.603,18.244 20.763,18.849 21.09,19.806 20.25,19.2 19.41,19.806 	"/>
	<polygon fill-rule="evenodd" clip-rule="evenodd" fill="#FFFFFF" points="22.116,5.202 22.42,4.222 21.603,3.593 22.63,3.593 
		22.956,2.613 23.26,3.593 24.31,3.593 23.47,4.222 23.772,5.202 22.956,4.595 22.116,5.202 	"/>
	<polygon fill-rule="evenodd" clip-rule="evenodd" fill="#FFFFFF" points="22.187,9.332 22.513,8.351 21.673,7.721 22.699,7.721 
		23.026,6.742 23.329,7.721 24.379,7.721 23.539,8.351 23.866,9.332 23.026,8.724 22.187,9.332 	"/>
	<polygon fill-rule="evenodd" clip-rule="evenodd" fill="#FFFFFF" points="22.187,13.671 22.513,12.691 21.673,12.085 
		22.699,12.085 23.026,11.104 23.329,12.085 24.379,12.085 23.539,12.691 23.866,13.671 23.026,13.064 22.187,13.671 	"/>
	<polygon fill-rule="evenodd" clip-rule="evenodd" fill="#FFFFFF" points="22.116,18.033 22.42,17.053 21.603,16.447 22.63,16.447 
		22.956,15.468 23.26,16.447 24.31,16.447 23.47,17.053 23.772,18.033 22.956,17.427 22.116,18.033 	"/>
	<polygon fill-rule="evenodd" clip-rule="evenodd" fill="#FFFFFF" points="30.515,3.103 30.842,2.123 30.001,1.516 31.028,1.516 
		31.354,0.513 31.682,1.516 32.708,1.516 31.868,2.123 32.194,3.103 31.354,2.496 30.515,3.103 	"/>
	<polygon fill-rule="evenodd" clip-rule="evenodd" fill="#FFFFFF" points="30.585,7.302 30.911,6.322 30.071,5.716 31.098,5.716 
		31.425,4.736 31.751,5.716 32.777,5.716 31.938,6.322 32.265,7.302 31.425,6.695 30.585,7.302 	"/>
	<polygon fill-rule="evenodd" clip-rule="evenodd" fill="#FFFFFF" points="25.032,2.939 25.359,1.959 24.52,1.353 25.546,1.353 
		25.872,0.373 26.199,1.353 27.226,1.353 26.386,1.959 26.712,2.939 25.872,2.332 25.032,2.939 	"/>
	<polygon fill-rule="evenodd" clip-rule="evenodd" fill="#FFFFFF" points="25.103,7.138 25.429,6.159 24.589,5.552 25.639,5.552 
		25.942,4.572 26.269,5.552 27.296,5.552 26.455,6.159 26.782,7.138 25.942,6.532 25.103,7.138 	"/>
	<polygon fill-rule="evenodd" clip-rule="evenodd" fill="#FFFFFF" points="25.195,11.361 25.499,10.382 24.659,9.775 25.709,9.775 
		26.036,8.771 26.339,9.775 27.389,9.775 26.525,10.382 26.853,11.361 26.036,10.755 25.195,11.361 	"/>
	<polygon fill-rule="evenodd" clip-rule="evenodd" fill="#FFFFFF" points="25.195,15.56 25.499,14.581 24.659,13.974 25.709,13.974 
		26.036,12.994 26.339,13.974 27.389,13.974 26.525,14.581 26.853,15.56 26.036,14.954 25.195,15.56 	"/>
	<polygon fill-rule="evenodd" clip-rule="evenodd" fill="#FFFFFF" points="25.266,19.736 25.592,18.78 24.752,18.174 25.778,18.174 
		26.105,17.171 26.409,18.174 27.459,18.174 26.618,18.78 26.945,19.736 26.105,19.153 25.266,19.736 	"/>
	<polygon fill-rule="evenodd" clip-rule="evenodd" fill="#FFFFFF" points="27.972,5.132 28.299,4.153 27.436,3.523 28.485,3.523 
		28.812,2.543 29.115,3.523 30.165,3.523 29.325,4.153 29.628,5.132 28.812,4.503 27.972,5.132 	"/>
	<polygon fill-rule="evenodd" clip-rule="evenodd" fill="#FFFFFF" points="28.042,9.261 28.368,8.282 27.528,7.651 28.555,7.651 
		28.882,6.672 29.186,7.651 30.234,7.651 29.395,8.282 29.722,9.261 28.882,8.632 28.042,9.261 	"/>
	<polygon fill-rule="evenodd" clip-rule="evenodd" fill="#FFFFFF" points="28.042,13.601 28.368,12.621 27.528,12.014 
		28.555,12.014 28.882,11.035 29.186,12.014 30.234,12.014 29.395,12.621 29.722,13.601 28.882,12.994 28.042,13.601 	"/>
	<polygon fill-rule="evenodd" clip-rule="evenodd" fill="#FFFFFF" points="27.972,17.964 28.299,16.983 27.436,16.377 
		28.485,16.377 28.812,15.374 29.115,16.377 30.165,16.377 29.325,16.983 29.628,17.964 28.812,17.357 27.972,17.964 	"/>
</g>
</svg>
