<?xml version="1.0" encoding="utf-8"?>
<!-- Generator: Adobe Illustrator 16.0.4, SVG Export Plug-In . SVG Version: 6.00 Build 0)  -->
<!DOCTYPE svg PUBLIC "-//W3C//DTD SVG 1.0//EN" "http://www.w3.org/TR/2001/REC-SVG-20010904/DTD/svg10.dtd">
<svg version="1.0" id="Layer_1" xmlns="http://www.w3.org/2000/svg" xmlns:xlink="http://www.w3.org/1999/xlink" x="0px" y="0px"
	 width="48px" height="41.764px" viewBox="479.992 144.438 48 41.764" enable-background="new 479.992 144.438 48 41.764"
	 xml:space="preserve">
<g>
	<path fill="#FFFFFF" d="M522.186,147.282c-2.209-1.828-5.047-2.833-7.988-2.833c-3.397,0-6.686,1.351-9.021,3.71
		c-0.42,0.425-0.813,0.881-1.183,1.376c-2.86-3.806-7.638-5.759-12.364-4.895c-3.921,0.711-7.005,2.867-9.158,6.401
		c-3.038,4.989-3.287,9.802-0.735,14.304c1.364,2.409,3.133,4.756,5.41,7.176c4.17,4.433,9.107,8.641,15.536,13.236
		c0.411,0.295,0.851,0.444,1.31,0.444c0.707,0,1.184-0.357,1.42-0.532c5.801-4.142,10.358-7.96,14.342-12.021
		c2.225-2.267,4.749-5.053,6.595-8.533c0.791-1.486,1.693-3.488,1.64-5.773C527.871,154.422,525.919,150.365,522.186,147.282z
		 M523.328,163.511c-1.644,3.094-3.963,5.648-6.016,7.74c-3.684,3.757-7.896,7.312-13.325,11.231
		c-5.908-4.274-10.48-8.198-14.346-12.31c-2.086-2.217-3.698-4.348-4.927-6.518c-1.946-3.432-1.729-6.877,0.682-10.835
		c1.623-2.666,3.926-4.286,6.847-4.816c0.56-0.103,1.126-0.153,1.685-0.153c3.463,0,6.53,1.913,8.262,5.233l0.294,0.555
		c0.302,0.567,0.924,0.889,1.538,0.904c0.643-0.012,1.224-0.38,1.507-0.958c0.608-1.24,1.271-2.203,2.081-3.022
		c1.697-1.712,4.098-2.695,6.588-2.695c2.147,0,4.209,0.728,5.809,2.05c2.975,2.457,4.467,5.567,4.562,9.501
		C524.603,160.904,523.962,162.319,523.328,163.511z"/>
</g>
</svg>
