<?xml version="1.0" encoding="utf-8"?>
<!-- Generator: Adobe Illustrator 16.0.4, SVG Export Plug-In . SVG Version: 6.00 Build 0)  -->
<!DOCTYPE svg PUBLIC "-//W3C//DTD SVG 1.0//EN" "http://www.w3.org/TR/2001/REC-SVG-20010904/DTD/svg10.dtd">
<svg version="1.0" id="objects" xmlns="http://www.w3.org/2000/svg" xmlns:xlink="http://www.w3.org/1999/xlink" x="0px" y="0px"
	 width="48px" height="48.001px" viewBox="0 0 48 48.001" enable-background="new 0 0 48 48.001" xml:space="preserve">
<g>
	<path fill="#FFFFFF" d="M24,18.619c-2.968,0-5.382,2.414-5.382,5.382s2.414,5.382,5.382,5.382s5.382-2.414,5.382-5.382
		S26.968,18.619,24,18.619z"/>
	<path fill="#FFFFFF" d="M33.649,11.068H14.351c-1.811,0-3.283,1.473-3.283,3.283V33.65c0,1.81,1.473,3.283,3.283,3.283h19.299
		c1.811,0,3.283-1.473,3.283-3.283V14.351C36.933,12.541,35.46,11.068,33.649,11.068z M24,33.321c-5.14,0-9.321-4.181-9.321-9.321
		S18.86,14.679,24,14.679s9.321,4.182,9.321,9.321S29.14,33.321,24,33.321z M33.54,16.649c-0.927,0-1.678-0.751-1.678-1.678
		s0.751-1.678,1.678-1.678s1.679,0.751,1.679,1.678S34.467,16.649,33.54,16.649z"/>
	<path fill="#FFFFFF" d="M24,0C10.745,0,0,10.745,0,24s10.745,24,24,24s24-10.745,24-24S37.255,0,24,0z M40.871,33.65
		c0,3.982-3.239,7.222-7.222,7.222H14.351c-3.982,0-7.223-3.24-7.223-7.222V14.351c0-3.982,3.24-7.222,7.223-7.222h19.299
		c3.982,0,7.222,3.24,7.222,7.222V33.65z"/>
</g>
</svg>
