<?xml version="1.0" encoding="utf-8"?>
<!-- Generator: Adobe Illustrator 16.0.4, SVG Export Plug-In . SVG Version: 6.00 Build 0)  -->
<!DOCTYPE svg PUBLIC "-//W3C//DTD SVG 1.0//EN" "http://www.w3.org/TR/2001/REC-SVG-20010904/DTD/svg10.dtd">
<svg version="1.0" id="objects" xmlns="http://www.w3.org/2000/svg" xmlns:xlink="http://www.w3.org/1999/xlink" x="0px" y="0px"
	 width="48px" height="48.001px" viewBox="0 0 48 48.001" enable-background="new 0 0 48 48.001" xml:space="preserve">
<path fill="#FFFFFF" d="M24,0C10.745,0,0,10.745,0,24s10.745,24,24,24s24-10.745,24-24S37.255,0,24,0z M35.127,18.293
	c0.011,0.246,0.017,0.494,0.017,0.742c0,7.588-5.775,16.336-16.335,16.336c-3.242,0-6.261-0.951-8.801-2.58
	c0.449,0.053,0.906,0.08,1.369,0.08c2.69,0,5.166-0.918,7.131-2.458c-2.513-0.047-4.633-1.706-5.363-3.987
	c0.351,0.067,0.71,0.103,1.08,0.103c0.523,0,1.031-0.07,1.513-0.202c-2.626-0.527-4.605-2.847-4.605-5.629c0-0.024,0-0.048,0-0.073
	c0.774,0.431,1.66,0.689,2.601,0.719c-1.54-1.03-2.554-2.788-2.554-4.779c0-1.052,0.283-2.039,0.777-2.887
	c2.832,3.474,7.062,5.76,11.834,5.999c-0.099-0.42-0.149-0.858-0.149-1.308c0-3.17,2.57-5.742,5.741-5.742
	c1.651,0,3.144,0.698,4.191,1.813c1.308-0.257,2.536-0.735,3.646-1.393c-0.43,1.342-1.34,2.465-2.525,3.176
	c1.162-0.138,2.269-0.447,3.298-0.904C37.223,16.473,36.249,17.484,35.127,18.293z"/>
</svg>
