<?xml version="1.0" encoding="utf-8"?>
<!-- Generator: Adobe Illustrator 16.0.4, SVG Export Plug-In . SVG Version: 6.00 Build 0)  -->
<!DOCTYPE svg PUBLIC "-//W3C//DTD SVG 1.0//EN" "http://www.w3.org/TR/2001/REC-SVG-20010904/DTD/svg10.dtd">
<svg version="1.0" id="Layer_1" xmlns="http://www.w3.org/2000/svg" xmlns:xlink="http://www.w3.org/1999/xlink" x="0px" y="0px"
	 width="236.221px" height="33.361px" viewBox="0 0 236.221 33.361" enable-background="new 0 0 236.221 33.361"
	 xml:space="preserve">
<g>
	<path fill="#FFFFFF" d="M230.938,31.877c-0.52-0.544-0.783-1.213-0.783-2.023c0-0.797,0.264-1.467,0.783-2.007
		c0.532-0.542,1.172-0.81,1.948-0.81c0.784,0,1.425,0.268,1.948,0.81c0.524,0.54,0.786,1.21,0.786,2.007
		c0,0.811-0.262,1.479-0.797,2.023c-0.521,0.556-1.171,0.827-1.938,0.827C232.11,32.704,231.471,32.433,230.938,31.877z
		 M230.527,27.506c-0.659,0.637-0.977,1.416-0.977,2.348c0,0.938,0.317,1.734,0.977,2.371c0.646,0.645,1.441,0.965,2.359,0.965
		c0.919,0,1.705-0.32,2.36-0.956c0.65-0.646,0.974-1.438,0.974-2.38c0-0.932-0.323-1.711-0.98-2.348
		c-0.661-0.637-1.441-0.957-2.354-0.957C231.969,26.549,231.174,26.869,230.527,27.506z M232.202,31.807v-1.675h0.64l1.048,1.675
		h0.655l-1.114-1.711c0.311-0.041,0.545-0.143,0.732-0.313c0.19-0.167,0.287-0.416,0.287-0.743c0-0.742-0.454-1.118-1.354-1.118
		h-1.499v3.886H232.202z M233.003,28.412c0.258,0,0.456,0.039,0.611,0.13c0.165,0.085,0.24,0.235,0.24,0.461
		c0,0.286-0.086,0.458-0.266,0.538c-0.158,0.074-0.422,0.11-0.766,0.11h-0.621v-1.239H233.003z"/>
	<path fill="#FFFFFF" d="M47.226,0.103c-5.033,0-9.767,2.695-14.076,8.021c-3.405,4.932-6.818,9.866-10.239,14.792
		c-4.023,5.26-8.296,7.938-12.701,7.957H0v2.488h10.209c5.237,0,10.08-2.709,14.405-8.065c3.558-5.255,6.852-10.099,10.068-14.805
		c3.947-5.25,8.168-7.912,12.543-7.912H57.43V0.103H47.226z"/>
	<path fill="#FFFFFF" d="M87.575,0L60.554,33.079l-0.229,0.282h3.308l16.59-20.576h14.786l16.42,20.511l0.053,0.064h2.628L87.575,0z
		 M92.976,10.302H82.192l5.382-6.722L92.976,10.302z"/>
	<polygon fill="#FFFFFF" points="166.728,0.103 166.728,10.302 120.202,10.302 120.202,0.103 117.679,0.103 117.679,33.361 
		120.202,33.361 120.202,12.786 166.728,12.786 166.728,33.361 169.251,33.361 169.251,0.103 	"/>
	<path fill="#FFFFFF" d="M200.606,0.168L200.472,0l-27.015,33.079l-0.23,0.282h3.312l16.586-20.576h14.785l16.421,20.511
		l0.053,0.064h2.63L200.606,0.168z M205.893,10.302h-10.792l5.391-6.722L205.893,10.302z"/>
</g>
</svg>
