<?xml version="1.0" encoding="utf-8"?>
<!-- Generator: Adobe Illustrator 16.0.4, SVG Export Plug-In . SVG Version: 6.00 Build 0)  -->
<!DOCTYPE svg PUBLIC "-//W3C//DTD SVG 1.0//EN" "http://www.w3.org/TR/2001/REC-SVG-20010904/DTD/svg10.dtd">
<svg version="1.0" id="Layer_1" xmlns="http://www.w3.org/2000/svg" xmlns:xlink="http://www.w3.org/1999/xlink" x="0px" y="0px"
	 width="204.763px" height="50px" viewBox="0 0 204.763 50" enable-background="new 0 0 204.763 50" xml:space="preserve">
<g>
	<path fill="#253B80" d="M77.872,21.794c-0.62,4.065-3.726,4.065-6.73,4.065h-1.71l1.199-7.593c0.072-0.459,0.469-0.797,0.933-0.797
		h0.784c2.046,0,3.977,0,4.974,1.167C77.917,19.332,78.099,20.366,77.872,21.794 M76.564,11.182H65.233
		c-0.776,0-1.435,0.563-1.556,1.328l-4.583,29.056c-0.091,0.574,0.353,1.091,0.934,1.091h5.41c0.776,0,1.436-0.563,1.556-1.331
		l1.236-7.837c0.119-0.767,0.78-1.331,1.554-1.331h3.587c7.464,0,11.772-3.612,12.897-10.77c0.507-3.131,0.021-5.592-1.445-7.314
		C83.213,12.182,80.357,11.182,76.564,11.182"/>
	<path fill="#253B80" d="M102.872,32.224c-0.524,3.1-2.984,5.181-6.123,5.181c-1.575,0-2.834-0.505-3.643-1.463
		c-0.802-0.951-1.107-2.305-0.852-3.812c0.489-3.073,2.991-5.222,6.081-5.222c1.541,0,2.793,0.512,3.619,1.478
		C102.78,29.361,103.108,30.723,102.872,32.224 M110.435,21.663h-5.426c-0.462,0-0.861,0.338-0.933,0.797l-0.24,1.518l-0.379-0.55
		c-1.174-1.705-3.794-2.275-6.409-2.275c-5.996,0-11.118,4.542-12.115,10.912c-0.519,3.178,0.219,6.216,2.021,8.335
		c1.653,1.948,4.02,2.76,6.834,2.76c4.832,0,7.511-3.106,7.511-3.106l-0.242,1.508c-0.091,0.577,0.353,1.093,0.931,1.093h4.887
		c0.777,0,1.434-0.563,1.556-1.331l2.933-18.571C111.458,22.182,111.015,21.663,110.435,21.663"/>
	<path fill="#253B80" d="M139.334,21.663h-5.453c-0.521,0-1.009,0.259-1.304,0.691l-7.521,11.078l-3.188-10.645
		c-0.201-0.666-0.815-1.124-1.511-1.124H115c-0.651,0-1.104,0.636-0.896,1.25l6.006,17.625l-5.646,7.971
		c-0.444,0.628,0.003,1.491,0.771,1.491h5.446c0.517,0,1.001-0.252,1.294-0.676l18.136-26.178
		C140.543,22.52,140.098,21.663,139.334,21.663"/>
	<path fill="#179BD7" d="M158.694,21.794c-0.618,4.065-3.725,4.065-6.73,4.065h-1.708l1.202-7.593
		c0.07-0.459,0.465-0.797,0.931-0.797h0.784c2.044,0,3.977,0,4.974,1.167C158.74,19.332,158.921,20.366,158.694,21.794
		 M157.387,11.182h-11.333c-0.774,0-1.434,0.563-1.554,1.328l-4.583,29.056c-0.091,0.574,0.353,1.091,0.931,1.091h5.815
		c0.541,0,1.002-0.395,1.087-0.931l1.301-8.236c0.119-0.767,0.78-1.331,1.555-1.331h3.584c7.466,0,11.772-3.612,12.898-10.77
		c0.509-3.131,0.02-5.592-1.446-7.314C164.034,12.182,161.179,11.182,157.387,11.182"/>
	<path fill="#179BD7" d="M183.692,32.224c-0.52,3.1-2.984,5.181-6.122,5.181c-1.572,0-2.834-0.505-3.644-1.463
		c-0.801-0.951-1.103-2.305-0.852-3.812c0.493-3.073,2.991-5.222,6.081-5.222c1.541,0,2.793,0.512,3.619,1.478
		C183.604,29.361,183.933,30.723,183.692,32.224 M191.256,21.663h-5.423c-0.465,0-0.861,0.338-0.931,0.797l-0.24,1.518l-0.381-0.55
		c-1.175-1.705-3.792-2.275-6.407-2.275c-5.996,0-11.115,4.542-12.113,10.912c-0.517,3.178,0.217,6.216,2.02,8.335
		c1.657,1.948,4.019,2.76,6.834,2.76c4.831,0,7.51-3.106,7.51-3.106l-0.242,1.508c-0.091,0.577,0.353,1.093,0.935,1.093h4.886
		c0.773,0,1.433-0.563,1.553-1.331l2.935-18.571C192.282,22.182,191.838,21.663,191.256,21.663"/>
	<path fill="#179BD7" d="M197.653,11.979l-4.651,29.588c-0.092,0.573,0.353,1.09,0.931,1.09h4.676c0.777,0,1.437-0.563,1.556-1.331
		l4.586-29.055c0.091-0.573-0.353-1.092-0.931-1.092h-5.236C198.122,11.182,197.725,11.52,197.653,11.979"/>
	<path fill="#253B80" d="M12.039,48.304l0.867-5.504l-1.93-0.044H1.758L8.164,2.141c0.02-0.123,0.084-0.237,0.179-0.318
		c0.095-0.082,0.215-0.126,0.341-0.126h15.541c5.16,0,8.72,1.073,10.579,3.192c0.872,0.994,1.427,2.033,1.695,3.176
		c0.282,1.2,0.287,2.633,0.012,4.38l-0.02,0.128v1.12l0.872,0.494c0.734,0.39,1.317,0.835,1.764,1.345
		c0.746,0.85,1.228,1.931,1.432,3.211c0.21,1.317,0.141,2.885-0.204,4.659c-0.397,2.042-1.041,3.819-1.909,5.274
		c-0.799,1.34-1.816,2.452-3.023,3.313c-1.153,0.818-2.524,1.439-4.073,1.838c-1.501,0.391-3.212,0.588-5.09,0.588H25.05
		c-0.865,0-1.705,0.312-2.364,0.87c-0.661,0.57-1.099,1.349-1.233,2.2l-0.091,0.496l-1.531,9.7l-0.069,0.357
		c-0.019,0.113-0.05,0.169-0.096,0.207c-0.042,0.035-0.101,0.058-0.159,0.058H12.039z"/>
	<path fill="#179BD7" d="M38.187,12.703c-0.046,0.297-0.1,0.6-0.159,0.911c-2.049,10.523-9.062,14.158-18.017,14.158h-4.56
		c-1.095,0-2.018,0.795-2.188,1.875l-2.334,14.806l-0.662,4.197c-0.111,0.709,0.436,1.349,1.152,1.349h8.087
		c0.958,0,1.771-0.696,1.922-1.641l0.079-0.411l1.523-9.663l0.098-0.53c0.149-0.947,0.964-1.644,1.922-1.644h1.209
		c7.835,0,13.969-3.181,15.762-12.387c0.749-3.846,0.361-7.057-1.62-9.314C39.801,13.729,39.057,13.164,38.187,12.703"/>
	<path fill="#222D65" d="M36.043,11.848c-0.313-0.091-0.636-0.174-0.968-0.248c-0.333-0.073-0.674-0.138-1.025-0.194
		c-1.229-0.199-2.576-0.293-4.02-0.293H17.849c-0.3,0-0.584,0.068-0.84,0.19c-0.562,0.27-0.979,0.802-1.081,1.453l-2.591,16.413
		l-0.074,0.479c0.171-1.08,1.093-1.875,2.188-1.875h4.56c8.955,0,15.967-3.637,18.017-14.158c0.062-0.312,0.113-0.615,0.159-0.912
		c-0.519-0.274-1.081-0.51-1.685-0.71C36.353,11.942,36.199,11.895,36.043,11.848"/>
	<path fill="#253B80" d="M15.929,12.756c0.102-0.651,0.519-1.183,1.081-1.451c0.256-0.123,0.54-0.191,0.84-0.191H30.03
		c1.443,0,2.79,0.095,4.02,0.293c0.352,0.056,0.692,0.121,1.025,0.194c0.332,0.074,0.654,0.157,0.968,0.248
		c0.156,0.046,0.31,0.095,0.46,0.143c0.605,0.2,1.167,0.437,1.685,0.711c0.61-3.889-0.004-6.536-2.107-8.934
		C33.763,1.129,29.58,0,24.226,0H8.686C7.592,0,6.659,0.795,6.49,1.877L0.017,42.909c-0.127,0.812,0.499,1.544,1.317,1.544h9.594
		l2.409-15.284L15.929,12.756z"/>
</g>
</svg>
