<?xml version="1.0" encoding="utf-8"?>
<svg version="1.0" id="remove" xmlns="http://www.w3.org/2000/svg" xmlns:xlink="http://www.w3.org/1999/xlink" x="0px" y="0px"
	 width="48px" height="48px" viewBox="0 0 48 48" enable-background="new 0 0 48 48" xml:space="preserve">
<path d="M46.861,41.354L29.508,24L46.861,6.647c1.52-1.521,1.518-3.986-0.002-5.506c-1.521-1.52-3.984-1.521-5.508,0L24,18.493
	L6.646,1.141c-1.52-1.52-3.985-1.52-5.505,0C-0.379,2.661-0.379,5.126,1.14,6.647L18.495,24L1.14,41.354
	c-1.52,1.52-1.52,3.985,0,5.505c1.521,1.521,3.987,1.521,5.506,0.002L24,29.507l17.353,17.353c1.521,1.521,3.984,1.521,5.508,0
	C48.379,45.339,48.381,42.875,46.861,41.354z"/>
</svg>
