<?xml version="1.0" encoding="utf-8"?>
<!-- Generator: Adobe Illustrator 16.0.4, SVG Export Plug-In . SVG Version: 6.00 Build 0)  -->
<!DOCTYPE svg PUBLIC "-//W3C//DTD SVG 1.0//EN" "http://www.w3.org/TR/2001/REC-SVG-20010904/DTD/svg10.dtd">
<svg version="1.0" id="Layer_1" xmlns="http://www.w3.org/2000/svg" xmlns:xlink="http://www.w3.org/1999/xlink" x="0px" y="0px"
	 width="47.657px" height="48px" viewBox="0 0 47.657 48" enable-background="new 0 0 47.657 48" xml:space="preserve">
<g>
	<g>
		<path fill="#7A7A7A" d="M37.436,48H10.223C4.585,48,0,43.519,0,38.013V9.987C0,4.481,4.585,0,10.223,0h27.213
			c5.636,0,10.222,4.481,10.222,9.987v28.025C47.657,43.519,43.071,48,37.436,48z M10.223,4.114c-3.369,0-6.108,2.634-6.108,5.873
			v28.025c0,3.238,2.74,5.873,6.108,5.873h27.213c3.367,0,6.107-2.635,6.107-5.873V9.987c0-3.239-2.74-5.873-6.107-5.873H10.223z"/>
	</g>
	<g>
		<path fill="#7A7A7A" d="M23.828,36.458c-6.868,0-12.457-5.589-12.457-12.458c0-6.87,5.589-12.458,12.457-12.458
			c6.871,0,12.459,5.587,12.459,12.458C36.287,30.869,30.699,36.458,23.828,36.458z M23.828,15.657
			c-4.601,0-8.343,3.742-8.343,8.343s3.742,8.344,8.343,8.344c4.603,0,8.345-3.742,8.345-8.344S28.431,15.657,23.828,15.657z"/>
	</g>
	<circle fill="#7A7A7A" cx="37.2" cy="10.915" r="2.914"/>
</g>
</svg>
