<?xml version="1.0" encoding="utf-8"?>
<!-- Generator: Adobe Illustrator 16.0.4, SVG Export Plug-In . SVG Version: 6.00 Build 0)  -->
<!DOCTYPE svg PUBLIC "-//W3C//DTD SVG 1.0//EN" "http://www.w3.org/TR/2001/REC-SVG-20010904/DTD/svg10.dtd">
<svg version="1.0" id="Layer_1" xmlns="http://www.w3.org/2000/svg" xmlns:xlink="http://www.w3.org/1999/xlink" x="0px" y="0px"
	 width="37.342px" height="48px" viewBox="0 0 37.342 48" enable-background="new 0 0 37.342 48" xml:space="preserve">
<g>
	<path fill="#7A7A7A" d="M21.79,34.814c-2.922-0.226-4.149-1.674-6.44-3.066C14.089,38.356,12.55,44.691,7.991,48
		c-1.409-9.987,2.065-17.49,3.679-25.452c-2.75-4.63,0.331-13.95,6.133-11.653c7.141,2.824-6.182,17.217,2.76,19.014
		c9.338,1.876,13.148-16.202,7.359-22.08C19.557-0.661,3.571,7.634,5.537,19.787c0.479,2.971,3.549,3.874,1.226,7.974
		c-5.354-1.187-6.951-5.408-6.745-11.038C0.348,7.506,8.297,1.055,16.27,0.161c10.083-1.128,19.548,3.702,20.854,13.187
		C38.594,24.053,32.571,35.646,21.79,34.814L21.79,34.814z M21.79,34.814"/>
</g>
</svg>
