<?xml version="1.0" encoding="utf-8"?>
<!-- Generator: Adobe Illustrator 16.0.4, SVG Export Plug-In . SVG Version: 6.00 Build 0)  -->
<!DOCTYPE svg PUBLIC "-//W3C//DTD SVG 1.0//EN" "http://www.w3.org/TR/2001/REC-SVG-20010904/DTD/svg10.dtd">
<svg version="1.0" id="Layer_1" xmlns="http://www.w3.org/2000/svg" xmlns:xlink="http://www.w3.org/1999/xlink" x="0px" y="0px"
	 width="48px" height="48px" viewBox="576 216 48 48" enable-background="new 576 216 48 48" xml:space="preserve">
<g>
	<g>
		<path fill="#FFFFFF" d="M609.23,236.308c0-3.558-1.264-6.601-3.793-9.13s-5.572-3.793-9.13-3.793s-6.601,1.264-9.13,3.793
			s-3.793,5.572-3.793,9.13s1.264,6.601,3.793,9.13s5.572,3.793,9.13,3.793s6.601-1.265,9.13-3.793S609.23,239.865,609.23,236.308
			L609.23,236.308L609.23,236.308z M624,260.308c0,1-0.365,1.865-1.096,2.596c-0.731,0.731-1.597,1.096-2.597,1.096
			c-1.038,0-1.903-0.365-2.597-1.096l-9.894-9.865c-3.442,2.384-7.278,3.577-11.51,3.577c-2.75,0-5.38-0.533-7.889-1.601
			c-2.51-1.067-4.673-2.51-6.491-4.327s-3.259-3.981-4.327-6.49c-1.067-2.51-1.601-5.14-1.601-7.89s0.534-5.38,1.601-7.889
			c1.067-2.51,2.509-4.673,4.327-6.491s3.981-3.259,6.491-4.327c2.509-1.067,5.139-1.601,7.889-1.601s5.38,0.534,7.89,1.601
			s4.673,2.509,6.49,4.327s3.26,3.981,4.327,6.491c1.067,2.509,1.601,5.139,1.601,7.889c0,4.231-1.192,8.067-3.576,11.51
			l9.894,9.894C623.645,258.423,624,259.289,624,260.308L624,260.308L624,260.308z"/>
	</g>
</g>
</svg>
